# xmcd CD database file
#
# Track frame offsets:
#	150
#	26455
#	48037
#	75105
#	99555
#	127100
#	159432
#	185242
#	212957
#	241680
#
# Disc length: 3573 seconds
#
# Revision: 0
# Processed by: cddbd v1.5.1PL0 Copyright (c) Steve Scherf et al.
# Submitted via: CDex 1.51
#
DISCID=770df30a
DTITLE=Harry Allen - Isn't This A Lovely Day
DYEAR=2004
DGENRE=Jazz
TTITLE0=Isn't This A Lovely Day
TTITLE1=I'm In The Mood For Love
TTITLE2=Sweet Lorraine
TTITLE3=All My Tomorrows
TTITLE4=All Or Nothing At All
TTITLE5=Autumn Leaves
TTITLE6=Only The Lonely
TTITLE7=Speak Low
TTITLE8=Girl Talk
TTITLE9=Goodbye
EXTD=YEAR: 2004
EXTT0=
EXTT1=
EXTT2=
EXTT3=
EXTT4=
EXTT5=
EXTT6=
EXTT7=
EXTT8=
EXTT9=
PLAYORDER=
